<svg xmlns="http://www.w3.org/2000/svg" xmlns:xlink="http://www.w3.org/1999/xlink" width="90" zoomAndPan="magnify" viewBox="0 0 67.5 67.499996" height="90" preserveAspectRatio="xMidYMid meet" version="1.0"><defs><clipPath id="d70ab534b4"><path d="M 20 40 L 47 40 L 47 65.933594 L 20 65.933594 Z M 20 40 " clip-rule="nonzero"/></clipPath><clipPath id="807464b229"><path d="M 0.546875 1.164062 L 66.804688 1.164062 L 66.804688 65 L 0.546875 65 Z M 0.546875 1.164062 " clip-rule="nonzero"/></clipPath></defs><g clip-path="url(#d70ab534b4)"><path fill="#ffffff" d="M 33.488281 40.140625 C 26.410156 40.140625 20.644531 45.90625 20.644531 52.984375 C 20.644531 60.0625 26.410156 65.828125 33.488281 65.828125 C 40.566406 65.828125 46.332031 60.0625 46.332031 52.984375 C 46.332031 45.90625 40.566406 40.140625 33.488281 40.140625 Z M 41.648438 46.082031 L 40.203125 49.679688 L 38.546875 50.214844 L 34.558594 47.566406 L 34.558594 45.867188 L 37.78125 43.175781 C 39.28125 43.847656 40.605469 44.835938 41.648438 46.082031 Z M 33.488281 42.28125 C 34.117188 42.28125 34.730469 42.335938 35.320312 42.441406 L 33.488281 43.964844 L 31.65625 42.441406 C 32.242188 42.335938 32.859375 42.28125 33.488281 42.28125 Z M 29.191406 43.175781 L 32.417969 45.867188 L 32.417969 47.566406 L 28.46875 50.226562 L 26.8125 49.691406 L 25.351562 46.039062 C 26.394531 44.824219 27.707031 43.832031 29.191406 43.175781 Z M 23.90625 48.207031 L 24.671875 50.121094 L 22.917969 51.21875 C 23.105469 50.160156 23.441406 49.144531 23.90625 48.207031 Z M 26.023438 60.636719 L 28.027344 60.503906 L 28.523438 62.457031 C 27.601562 61.976562 26.757812 61.359375 26.023438 60.636719 Z M 28.269531 58.351562 L 24.390625 58.605469 C 23.519531 57.199219 22.957031 55.566406 22.824219 53.828125 L 26.15625 51.726562 L 27.789062 52.261719 L 29.285156 56.957031 Z M 35.976562 63.394531 C 35.171875 63.582031 34.34375 63.6875 33.488281 63.6875 C 32.617188 63.6875 31.761719 63.582031 30.960938 63.382812 L 30.007812 59.609375 L 31.027344 58.214844 L 35.976562 58.214844 L 36.953125 59.566406 Z M 35.734375 56.074219 L 31.253906 56.074219 L 29.902344 51.847656 L 33.488281 49.425781 L 37.128906 51.835938 Z M 38.410156 62.484375 L 38.921875 60.464844 L 40.992188 60.597656 C 40.230469 61.359375 39.363281 61.988281 38.410156 62.484375 Z M 42.613281 58.5625 L 38.664062 58.296875 L 37.6875 56.945312 L 39.242188 52.234375 L 40.875 51.699219 L 44.152344 53.761719 C 44.03125 55.527344 43.484375 57.160156 42.613281 58.5625 Z M 44.03125 51.164062 L 42.34375 50.109375 L 43.082031 48.261719 C 43.535156 49.15625 43.855469 50.136719 44.03125 51.164062 Z M 44.03125 51.164062 " fill-opacity="1" fill-rule="nonzero"/></g><g clip-path="url(#807464b229)"><path fill="#ffffff" d="M 42.761719 37.277344 C 41.929688 36.367188 40.738281 35.859375 39.523438 35.859375 L 38.679688 35.859375 C 37.984375 35.859375 37.289062 35.804688 36.605469 35.699219 C 38.265625 34.695312 39.75 33.382812 40.980469 31.804688 L 47.148438 23.871094 C 47.324219 24.738281 47.402344 25.636719 47.402344 26.519531 C 47.402344 28.042969 48.179688 29.449219 49.476562 30.253906 L 65.039062 39.980469 L 66.175781 38.160156 L 50.613281 28.433594 C 49.945312 28.019531 49.542969 27.296875 49.542969 26.503906 C 49.542969 24.875 49.289062 23.269531 48.808594 21.714844 L 50.210938 19.910156 C 51.257812 18.570312 51.136719 16.65625 49.933594 15.46875 C 49.261719 14.796875 48.394531 14.449219 47.523438 14.421875 C 47.523438 13.582031 47.1875 12.722656 46.546875 12.082031 C 45.945312 11.480469 45.15625 11.132812 44.3125 11.105469 C 44.285156 10.289062 43.949219 9.488281 43.335938 8.871094 C 42.734375 8.269531 41.945312 7.921875 41.101562 7.894531 C 41.074219 7.078125 40.738281 6.273438 40.125 5.660156 C 39.574219 5.109375 38.851562 4.777344 38.089844 4.695312 L 36.136719 2.742188 C 34.664062 1.269531 32.335938 1.164062 30.730469 2.503906 L 26.371094 6.128906 C 26.140625 6.316406 25.996094 6.597656 25.980469 6.902344 C 25.980469 6.957031 25.980469 7.023438 25.996094 7.078125 C 25.914062 7.34375 25.875 7.625 25.859375 7.894531 C 25.019531 7.921875 24.230469 8.269531 23.625 8.871094 C 23.011719 9.488281 22.675781 10.289062 22.648438 11.105469 C 21.808594 11.132812 21.019531 11.480469 20.414062 12.082031 C 19.800781 12.699219 19.464844 13.5 19.4375 14.316406 C 18.597656 14.34375 17.804688 14.691406 17.203125 15.292969 C 15.90625 16.589844 15.90625 18.71875 17.203125 20.015625 L 18.339844 21.152344 L 18.25 21.433594 C 17.699219 23.082031 17.417969 24.78125 17.417969 26.503906 C 17.417969 27.296875 17.015625 28.019531 16.347656 28.433594 L 0.8125 38.160156 L 1.953125 39.980469 L 17.511719 30.253906 C 18.808594 29.4375 19.585938 28.042969 19.585938 26.519531 C 19.585938 25.234375 19.761719 23.964844 20.109375 22.734375 C 20.601562 23 21.152344 23.148438 21.726562 23.148438 C 22.625 23.148438 23.453125 22.800781 24.09375 22.171875 C 24.484375 21.78125 24.765625 21.3125 24.910156 20.820312 C 25.257812 20.941406 25.632812 21.007812 26.007812 21.007812 C 26.90625 21.007812 27.734375 20.660156 28.375 20.03125 C 28.765625 19.640625 29.046875 19.171875 29.191406 18.679688 C 29.539062 18.800781 29.914062 18.867188 30.289062 18.867188 C 31.1875 18.867188 32.015625 18.519531 32.660156 17.890625 C 33.046875 17.5 33.328125 17.03125 33.472656 16.539062 C 33.824219 16.65625 34.195312 16.726562 34.570312 16.726562 C 35.46875 16.726562 36.296875 16.378906 36.941406 15.75 C 37.769531 14.917969 38.0625 13.769531 37.851562 12.699219 L 38.011719 12.535156 L 40.152344 10.394531 C 40.378906 10.167969 40.671875 10.046875 40.992188 10.046875 C 41.316406 10.046875 41.609375 10.167969 41.835938 10.394531 C 42.304688 10.863281 42.304688 11.628906 41.835938 12.09375 L 40.230469 13.699219 L 41.742188 15.214844 L 43.347656 13.609375 C 43.578125 13.378906 43.871094 13.257812 44.191406 13.257812 C 44.511719 13.257812 44.808594 13.378906 45.035156 13.609375 C 45.503906 14.074219 45.503906 14.839844 45.035156 15.308594 L 44.859375 15.480469 L 43.429688 16.914062 L 44.941406 18.425781 L 46.371094 16.992188 C 46.933594 16.429688 47.859375 16.429688 48.421875 16.992188 C 48.863281 17.433594 48.902344 18.117188 48.527344 18.613281 L 39.28125 30.492188 C 36.632812 33.90625 32.617188 35.871094 28.296875 35.871094 L 27.453125 35.871094 C 26.222656 35.871094 25.046875 36.394531 24.214844 37.289062 L 0.585938 62.964844 L 2.164062 64.410156 L 25.792969 38.734375 C 26.222656 38.265625 26.824219 38 27.46875 38 L 28.308594 38 C 30.117188 38 31.867188 37.703125 33.515625 37.144531 C 35.1875 37.703125 36.925781 38 38.691406 38 L 39.535156 38 C 40.164062 38 40.78125 38.265625 41.207031 38.734375 L 64.835938 64.410156 L 66.417969 62.964844 Z M 32.109375 4.148438 C 32.859375 3.519531 33.941406 3.574219 34.636719 4.269531 L 35.75 5.378906 C 35.628906 5.472656 35.523438 5.566406 35.414062 5.671875 L 33.808594 7.277344 C 32.457031 8.628906 30.25 8.628906 28.898438 7.277344 L 28.65625 7.039062 Z M 22.554688 20.644531 C 22.328125 20.871094 22.035156 20.992188 21.714844 20.992188 C 21.390625 20.992188 21.097656 20.871094 20.871094 20.644531 L 18.730469 18.503906 C 18.261719 18.035156 18.261719 17.273438 18.730469 16.804688 C 18.957031 16.578125 19.25 16.457031 19.574219 16.457031 C 19.894531 16.457031 20.1875 16.578125 20.414062 16.804688 L 22.554688 18.945312 C 23.023438 19.429688 23.023438 20.175781 22.554688 20.644531 Z M 26.839844 18.503906 C 26.609375 18.730469 26.316406 18.851562 25.996094 18.851562 C 25.675781 18.851562 25.378906 18.730469 25.152344 18.503906 L 21.941406 15.292969 C 21.472656 14.824219 21.472656 14.0625 21.941406 13.59375 C 22.167969 13.367188 22.460938 13.246094 22.785156 13.246094 C 23.105469 13.246094 23.398438 13.367188 23.625 13.59375 L 26.839844 16.804688 C 27.304688 17.285156 27.304688 18.035156 26.839844 18.503906 Z M 31.121094 16.363281 C 30.890625 16.589844 30.597656 16.710938 30.277344 16.710938 C 29.957031 16.710938 29.660156 16.589844 29.433594 16.363281 L 25.152344 12.082031 C 24.683594 11.613281 24.683594 10.851562 25.152344 10.382812 C 25.378906 10.15625 25.675781 10.035156 25.996094 10.035156 C 26.316406 10.035156 26.609375 10.15625 26.839844 10.382812 L 31.121094 14.664062 C 31.589844 15.144531 31.589844 15.894531 31.121094 16.363281 Z M 35.402344 14.222656 C 35.171875 14.449219 34.878906 14.570312 34.558594 14.570312 C 34.238281 14.570312 33.941406 14.449219 33.714844 14.222656 L 29.648438 10.15625 C 30.195312 10.328125 30.773438 10.421875 31.347656 10.421875 C 31.921875 10.421875 32.484375 10.328125 33.046875 10.15625 L 35.414062 12.523438 C 35.871094 13.003906 35.871094 13.753906 35.402344 14.222656 Z M 38.613281 8.871094 L 36.699219 10.796875 L 35 9.097656 L 36.914062 7.183594 C 37.140625 6.957031 37.433594 6.835938 37.757812 6.835938 C 38.078125 6.835938 38.371094 6.957031 38.597656 7.183594 C 39.082031 7.652344 39.082031 8.402344 38.613281 8.871094 Z M 38.613281 8.871094 " fill-opacity="1" fill-rule="nonzero"/></g><path fill="#ffffff" d="M 13.148438 16.589844 C 13.148438 14.824219 14.59375 13.378906 16.363281 13.378906 L 16.363281 11.238281 C 13.40625 11.238281 11.007812 13.632812 11.007812 16.589844 Z M 13.148438 16.589844 " fill-opacity="1" fill-rule="nonzero"/><path fill="#ffffff" d="M 12.078125 11.238281 L 12.078125 9.097656 C 10.3125 9.097656 8.867188 10.542969 8.867188 12.308594 L 11.007812 12.308594 C 11.007812 11.722656 11.492188 11.238281 12.078125 11.238281 Z M 12.078125 11.238281 " fill-opacity="1" fill-rule="nonzero"/><path fill="#ffffff" d="M 14.289062 27.039062 C 15.585938 26.226562 16.363281 24.832031 16.363281 23.308594 L 14.21875 23.308594 C 14.21875 24.097656 13.820312 24.820312 13.148438 25.234375 L 6.152344 29.609375 L 7.289062 31.429688 Z M 14.289062 27.039062 " fill-opacity="1" fill-rule="nonzero"/><path fill="#ffffff" d="M 1.882812 32.273438 L 4.445312 30.671875 L 5.578125 32.488281 L 3.015625 34.089844 Z M 1.882812 32.273438 " fill-opacity="1" fill-rule="nonzero"/><path fill="#ffffff" d="M 53.824219 16.589844 C 53.824219 17.726562 53.210938 18.800781 52.21875 19.375 L 53.289062 21.21875 C 54.9375 20.269531 55.964844 18.492188 55.964844 16.589844 C 55.964844 13.632812 53.570312 11.238281 50.613281 11.238281 L 50.613281 13.378906 C 52.378906 13.378906 53.824219 14.824219 53.824219 16.589844 Z M 53.824219 16.589844 " fill-opacity="1" fill-rule="nonzero"/><path fill="#ffffff" d="M 57.785156 13.621094 C 58 14.15625 57.988281 14.730469 57.757812 15.253906 L 59.726562 16.109375 C 60.179688 15.066406 60.195312 13.902344 59.78125 12.832031 C 59.363281 11.773438 58.546875 10.929688 57.503906 10.476562 L 56.648438 12.445312 C 57.171875 12.671875 57.585938 13.085938 57.785156 13.621094 Z M 57.785156 13.621094 " fill-opacity="1" fill-rule="nonzero"/></svg>