<svg xmlns="http://www.w3.org/2000/svg" xmlns:xlink="http://www.w3.org/1999/xlink" width="90" zoomAndPan="magnify" viewBox="0 0 67.5 67.499996" height="90" preserveAspectRatio="xMidYMid meet" version="1.0"><defs><clipPath id="238c11dee6"><path d="M 0.671875 31 L 66.183594 31 L 66.183594 66.183594 L 0.671875 66.183594 Z M 0.671875 31 " clip-rule="nonzero"/></clipPath><clipPath id="afff6a0886"><path d="M 11 0.671875 L 56 0.671875 L 56 13 L 11 13 Z M 11 0.671875 " clip-rule="nonzero"/></clipPath></defs><g clip-path="url(#238c11dee6)"><path fill="#ffffff" d="M 57.867188 31.9375 L 42.421875 31.9375 C 42.125 32.90625 41.683594 33.800781 41.101562 34.625 C 40.515625 35.453125 39.816406 36.164062 39.003906 36.765625 C 38.191406 37.367188 37.304688 37.824219 36.34375 38.140625 C 35.382812 38.457031 34.398438 38.617188 33.386719 38.617188 C 32.375 38.617188 31.390625 38.457031 30.429688 38.140625 C 29.46875 37.824219 28.582031 37.367188 27.769531 36.765625 C 26.957031 36.164062 26.257812 35.453125 25.671875 34.625 C 25.085938 33.800781 24.648438 32.90625 24.351562 31.9375 L 8.90625 31.9375 C 8.355469 31.941406 7.8125 31.992188 7.277344 32.101562 C 6.738281 32.207031 6.21875 32.367188 5.710938 32.574219 C 5.207031 32.785156 4.722656 33.042969 4.269531 33.347656 C 3.8125 33.652344 3.390625 33.996094 3.003906 34.382812 C 2.617188 34.773438 2.269531 35.195312 1.964844 35.648438 C 1.660156 36.105469 1.40625 36.585938 1.195312 37.09375 C 0.984375 37.597656 0.828125 38.121094 0.71875 38.65625 C 0.613281 39.195312 0.558594 39.738281 0.558594 40.285156 L 0.558594 58.089844 C 0.558594 58.636719 0.613281 59.179688 0.71875 59.71875 C 0.828125 60.253906 0.984375 60.777344 1.195312 61.28125 C 1.40625 61.789062 1.660156 62.269531 1.964844 62.726562 C 2.269531 63.179688 2.617188 63.601562 3.003906 63.988281 C 3.390625 64.378906 3.8125 64.722656 4.269531 65.027344 C 4.722656 65.332031 5.207031 65.589844 5.710938 65.800781 C 6.21875 66.007812 6.738281 66.167969 7.277344 66.273438 C 7.8125 66.382812 8.355469 66.433594 8.90625 66.4375 L 57.867188 66.4375 C 58.414062 66.433594 58.957031 66.382812 59.496094 66.273438 C 60.03125 66.167969 60.554688 66.007812 61.058594 65.800781 C 61.566406 65.589844 62.046875 65.332031 62.503906 65.027344 C 62.957031 64.722656 63.378906 64.378906 63.769531 63.992188 C 64.15625 63.601562 64.5 63.179688 64.804688 62.726562 C 65.109375 62.269531 65.367188 61.789062 65.578125 61.28125 C 65.785156 60.777344 65.945312 60.253906 66.050781 59.71875 C 66.160156 59.179688 66.210938 58.636719 66.214844 58.089844 L 66.214844 40.285156 C 66.210938 39.738281 66.160156 39.195312 66.050781 38.65625 C 65.945312 38.121094 65.785156 37.597656 65.578125 37.09375 C 65.367188 36.585938 65.109375 36.105469 64.804688 35.648438 C 64.5 35.195312 64.15625 34.773438 63.769531 34.382812 C 63.378906 33.996094 62.957031 33.652344 62.503906 33.347656 C 62.046875 33.042969 61.566406 32.785156 61.058594 32.574219 C 60.554688 32.367188 60.03125 32.207031 59.496094 32.101562 C 58.957031 31.992188 58.414062 31.941406 57.867188 31.9375 Z M 17.808594 57.535156 L 11.128906 57.535156 C 10.910156 57.53125 10.695312 57.488281 10.492188 57.402344 C 10.289062 57.316406 10.109375 57.195312 9.953125 57.039062 C 9.796875 56.882812 9.675781 56.703125 9.589844 56.5 C 9.507812 56.296875 9.460938 56.085938 9.460938 55.863281 L 9.460938 42.511719 C 9.460938 42.289062 9.503906 42.078125 9.589844 41.871094 C 9.671875 41.667969 9.792969 41.488281 9.949219 41.332031 C 10.105469 41.175781 10.285156 41.054688 10.492188 40.96875 C 10.695312 40.882812 10.910156 40.839844 11.128906 40.839844 C 11.351562 40.839844 11.566406 40.882812 11.769531 40.96875 C 11.972656 41.054688 12.152344 41.175781 12.308594 41.332031 C 12.46875 41.488281 12.585938 41.667969 12.671875 41.871094 C 12.757812 42.078125 12.800781 42.289062 12.800781 42.511719 L 12.800781 54.195312 L 17.808594 54.195312 C 18.027344 54.195312 18.242188 54.238281 18.445312 54.320312 C 18.648438 54.40625 18.832031 54.527344 18.988281 54.683594 C 19.144531 54.839844 19.265625 55.019531 19.347656 55.226562 C 19.433594 55.429688 19.476562 55.644531 19.476562 55.863281 C 19.476562 56.085938 19.433594 56.296875 19.347656 56.503906 C 19.265625 56.707031 19.144531 56.886719 18.988281 57.042969 C 18.832031 57.199219 18.648438 57.320312 18.445312 57.40625 C 18.242188 57.492188 18.027344 57.535156 17.808594 57.535156 Z M 26.152344 55.863281 C 26.152344 56.085938 26.109375 56.296875 26.027344 56.503906 C 25.941406 56.707031 25.820312 56.886719 25.664062 57.042969 C 25.507812 57.199219 25.328125 57.320312 25.121094 57.40625 C 24.917969 57.492188 24.703125 57.535156 24.484375 57.535156 C 24.261719 57.535156 24.050781 57.492188 23.84375 57.40625 C 23.640625 57.320312 23.460938 57.199219 23.304688 57.042969 C 23.148438 56.886719 23.027344 56.707031 22.941406 56.503906 C 22.855469 56.296875 22.8125 56.085938 22.8125 55.863281 L 22.8125 42.511719 C 22.8125 42.289062 22.855469 42.078125 22.941406 41.871094 C 23.027344 41.667969 23.148438 41.488281 23.304688 41.332031 C 23.460938 41.175781 23.640625 41.054688 23.84375 40.96875 C 24.050781 40.882812 24.261719 40.839844 24.484375 40.839844 C 24.703125 40.839844 24.917969 40.882812 25.121094 40.96875 C 25.328125 41.054688 25.507812 41.175781 25.664062 41.332031 C 25.820312 41.488281 25.941406 41.667969 26.027344 41.871094 C 26.109375 42.078125 26.152344 42.289062 26.152344 42.511719 Z M 43.867188 43.042969 L 39.417969 56.398438 C 39.304688 56.738281 39.101562 57.011719 38.808594 57.21875 C 38.519531 57.429688 38.195312 57.535156 37.835938 57.535156 C 37.480469 57.535156 37.15625 57.429688 36.863281 57.21875 C 36.574219 57.011719 36.371094 56.738281 36.257812 56.398438 L 31.804688 43.042969 C 31.738281 42.835938 31.710938 42.621094 31.726562 42.402344 C 31.742188 42.183594 31.800781 41.976562 31.898438 41.777344 C 31.996094 41.582031 32.128906 41.410156 32.296875 41.269531 C 32.460938 41.125 32.648438 41.015625 32.855469 40.945312 C 33.066406 40.875 33.277344 40.847656 33.5 40.859375 C 33.71875 40.875 33.925781 40.929688 34.125 41.027344 C 34.320312 41.125 34.492188 41.253906 34.636719 41.417969 C 34.785156 41.582031 34.894531 41.769531 34.964844 41.976562 L 37.835938 50.589844 L 40.707031 41.976562 C 40.777344 41.765625 40.882812 41.574219 41.03125 41.40625 C 41.175781 41.238281 41.347656 41.105469 41.546875 41.003906 C 41.746094 40.90625 41.957031 40.847656 42.179688 40.832031 C 42.398438 40.816406 42.617188 40.84375 42.828125 40.914062 C 43.039062 40.988281 43.226562 41.097656 43.394531 41.242188 C 43.5625 41.390625 43.695312 41.5625 43.792969 41.761719 C 43.890625 41.964844 43.945312 42.175781 43.957031 42.394531 C 43.972656 42.617188 43.941406 42.835938 43.867188 43.042969 Z M 55.640625 47.519531 C 55.863281 47.519531 56.074219 47.5625 56.28125 47.644531 C 56.484375 47.730469 56.664062 47.851562 56.820312 48.007812 C 56.976562 48.164062 57.097656 48.34375 57.183594 48.546875 C 57.269531 48.753906 57.3125 48.964844 57.3125 49.1875 C 57.3125 49.410156 57.269531 49.621094 57.183594 49.828125 C 57.097656 50.03125 56.976562 50.210938 56.820312 50.367188 C 56.664062 50.523438 56.484375 50.644531 56.28125 50.730469 C 56.074219 50.8125 55.863281 50.855469 55.640625 50.855469 L 50.632812 50.855469 L 50.632812 54.195312 L 55.640625 54.195312 C 55.863281 54.195312 56.074219 54.238281 56.28125 54.320312 C 56.484375 54.40625 56.664062 54.527344 56.820312 54.683594 C 56.976562 54.839844 57.097656 55.019531 57.183594 55.226562 C 57.269531 55.429688 57.3125 55.644531 57.3125 55.863281 C 57.3125 56.085938 57.269531 56.296875 57.183594 56.503906 C 57.097656 56.707031 56.976562 56.886719 56.820312 57.042969 C 56.664062 57.199219 56.484375 57.320312 56.28125 57.40625 C 56.074219 57.492188 55.863281 57.535156 55.640625 57.535156 L 48.964844 57.535156 C 48.742188 57.53125 48.53125 57.488281 48.328125 57.402344 C 48.125 57.316406 47.945312 57.195312 47.789062 57.039062 C 47.632812 56.882812 47.511719 56.703125 47.425781 56.5 C 47.339844 56.296875 47.296875 56.085938 47.296875 55.863281 L 47.296875 42.511719 C 47.296875 42.289062 47.339844 42.078125 47.425781 41.875 C 47.511719 41.671875 47.632812 41.488281 47.789062 41.335938 C 47.945312 41.179688 48.125 41.058594 48.328125 40.972656 C 48.53125 40.886719 48.742188 40.84375 48.964844 40.839844 L 55.640625 40.839844 C 55.863281 40.839844 56.074219 40.882812 56.28125 40.96875 C 56.484375 41.054688 56.664062 41.175781 56.820312 41.332031 C 56.976562 41.488281 57.097656 41.667969 57.183594 41.871094 C 57.269531 42.078125 57.3125 42.289062 57.3125 42.511719 C 57.3125 42.730469 57.269531 42.945312 57.183594 43.148438 C 57.097656 43.355469 56.976562 43.535156 56.820312 43.691406 C 56.664062 43.847656 56.484375 43.96875 56.28125 44.054688 C 56.074219 44.136719 55.863281 44.179688 55.640625 44.179688 L 50.632812 44.179688 L 50.632812 47.519531 Z M 55.640625 47.519531 " fill-opacity="1" fill-rule="nonzero"/></g><g clip-path="url(#afff6a0886)"><path fill="#ffffff" d="M 53.839844 12.589844 C 53.378906 12.59375 52.988281 12.433594 52.660156 12.109375 C 52.03125 11.476562 51.367188 10.878906 50.679688 10.3125 C 49.988281 9.746094 49.273438 9.214844 48.53125 8.71875 C 47.789062 8.222656 47.023438 7.761719 46.238281 7.339844 C 45.449219 6.917969 44.644531 6.539062 43.820312 6.195312 C 42.992188 5.855469 42.15625 5.554688 41.300781 5.292969 C 40.445312 5.035156 39.582031 4.820312 38.707031 4.644531 C 37.828125 4.46875 36.949219 4.339844 36.058594 4.25 C 35.171875 4.164062 34.28125 4.121094 33.386719 4.121094 C 32.496094 4.121094 31.605469 4.164062 30.714844 4.25 C 29.828125 4.339844 28.945312 4.46875 28.070312 4.644531 C 27.191406 4.820312 26.328125 5.035156 25.472656 5.292969 C 24.621094 5.554688 23.78125 5.855469 22.957031 6.195312 C 22.128906 6.539062 21.324219 6.917969 20.539062 7.339844 C 19.75 7.761719 18.984375 8.222656 18.242188 8.71875 C 17.5 9.214844 16.785156 9.746094 16.09375 10.3125 C 15.40625 10.878906 14.746094 11.476562 14.113281 12.109375 C 13.957031 12.261719 13.777344 12.378906 13.574219 12.457031 C 13.371094 12.539062 13.160156 12.578125 12.941406 12.578125 C 12.71875 12.574219 12.511719 12.53125 12.308594 12.449219 C 12.105469 12.363281 11.929688 12.242188 11.773438 12.089844 C 11.617188 11.933594 11.5 11.753906 11.414062 11.554688 C 11.328125 11.351562 11.285156 11.140625 11.285156 10.921875 C 11.28125 10.703125 11.324219 10.492188 11.402344 10.289062 C 11.484375 10.085938 11.601562 9.90625 11.753906 9.75 C 12.460938 9.039062 13.203125 8.367188 13.976562 7.730469 C 14.75 7.09375 15.554688 6.5 16.386719 5.941406 C 17.222656 5.382812 18.078125 4.871094 18.964844 4.398438 C 19.847656 3.921875 20.753906 3.496094 21.679688 3.113281 C 22.605469 2.726562 23.546875 2.390625 24.503906 2.097656 C 25.464844 1.808594 26.433594 1.566406 27.417969 1.371094 C 28.402344 1.171875 29.390625 1.027344 30.386719 0.929688 C 31.386719 0.832031 32.386719 0.78125 33.386719 0.78125 C 34.390625 0.78125 35.390625 0.832031 36.386719 0.929688 C 37.382812 1.027344 38.375 1.171875 39.355469 1.371094 C 40.339844 1.566406 41.3125 1.808594 42.269531 2.097656 C 43.230469 2.390625 44.171875 2.726562 45.097656 3.113281 C 46.023438 3.496094 46.925781 3.921875 47.8125 4.398438 C 48.695312 4.871094 49.554688 5.382812 50.386719 5.941406 C 51.21875 6.5 52.023438 7.09375 52.796875 7.730469 C 53.570312 8.367188 54.3125 9.039062 55.023438 9.75 C 55.253906 9.988281 55.398438 10.273438 55.460938 10.601562 C 55.519531 10.929688 55.488281 11.246094 55.359375 11.554688 C 55.230469 11.863281 55.027344 12.109375 54.753906 12.296875 C 54.476562 12.484375 54.171875 12.582031 53.839844 12.589844 Z M 53.839844 12.589844 " fill-opacity="1" fill-rule="nonzero"/></g><path fill="#ffffff" d="M 45.960938 20.46875 C 45.5 20.472656 45.105469 20.3125 44.78125 19.988281 C 44.410156 19.613281 44.019531 19.257812 43.609375 18.921875 C 43.203125 18.585938 42.78125 18.269531 42.34375 17.976562 C 41.902344 17.679688 41.453125 17.410156 40.984375 17.160156 C 40.519531 16.910156 40.042969 16.683594 39.554688 16.480469 C 39.070312 16.277344 38.574219 16.097656 38.066406 15.945312 C 37.5625 15.789062 37.050781 15.664062 36.53125 15.558594 C 36.015625 15.457031 35.492188 15.378906 34.964844 15.324219 C 34.441406 15.273438 33.914062 15.246094 33.386719 15.246094 C 32.859375 15.246094 32.332031 15.273438 31.804688 15.324219 C 31.28125 15.378906 30.757812 15.457031 30.238281 15.558594 C 29.722656 15.664062 29.210938 15.789062 28.703125 15.945312 C 28.199219 16.097656 27.703125 16.277344 27.214844 16.480469 C 26.726562 16.683594 26.25 16.910156 25.785156 17.160156 C 25.320312 17.410156 24.867188 17.679688 24.429688 17.976562 C 23.992188 18.269531 23.566406 18.585938 23.160156 18.921875 C 22.753906 19.257812 22.363281 19.613281 21.992188 19.988281 C 21.832031 20.140625 21.652344 20.257812 21.449219 20.34375 C 21.246094 20.425781 21.035156 20.464844 20.816406 20.464844 C 20.59375 20.464844 20.382812 20.421875 20.179688 20.335938 C 19.976562 20.25 19.796875 20.128906 19.644531 19.976562 C 19.488281 19.820312 19.367188 19.640625 19.28125 19.4375 C 19.199219 19.234375 19.15625 19.023438 19.152344 18.804688 C 19.152344 18.585938 19.195312 18.371094 19.277344 18.167969 C 19.359375 17.964844 19.476562 17.785156 19.628906 17.628906 C 20.082031 17.175781 20.550781 16.746094 21.042969 16.339844 C 21.535156 15.933594 22.046875 15.554688 22.574219 15.199219 C 23.105469 14.84375 23.648438 14.515625 24.210938 14.214844 C 24.773438 13.914062 25.347656 13.640625 25.9375 13.394531 C 26.527344 13.152344 27.125 12.9375 27.734375 12.75 C 28.34375 12.5625 28.964844 12.410156 29.589844 12.285156 C 30.214844 12.160156 30.84375 12.066406 31.476562 12.003906 C 32.113281 11.941406 32.75 11.910156 33.386719 11.910156 C 34.023438 11.910156 34.660156 11.941406 35.292969 12.003906 C 35.929688 12.066406 36.558594 12.160156 37.183594 12.285156 C 37.808594 12.410156 38.425781 12.5625 39.035156 12.75 C 39.644531 12.9375 40.246094 13.152344 40.835938 13.394531 C 41.421875 13.640625 42 13.914062 42.558594 14.214844 C 43.121094 14.515625 43.667969 14.84375 44.195312 15.199219 C 44.726562 15.554688 45.238281 15.933594 45.730469 16.339844 C 46.222656 16.746094 46.691406 17.175781 47.140625 17.628906 C 47.367188 17.871094 47.507812 18.15625 47.5625 18.480469 C 47.621094 18.804688 47.585938 19.121094 47.460938 19.425781 C 47.332031 19.730469 47.132812 19.980469 46.863281 20.167969 C 46.589844 20.355469 46.289062 20.457031 45.960938 20.46875 Z M 45.960938 20.46875 " fill-opacity="1" fill-rule="nonzero"/><path fill="#ffffff" d="M 39.507812 29.15625 C 39.507812 29.558594 39.46875 29.957031 39.386719 30.351562 C 39.308594 30.746094 39.195312 31.128906 39.039062 31.5 C 38.886719 31.871094 38.699219 32.222656 38.476562 32.558594 C 38.25 32.890625 37.996094 33.199219 37.714844 33.484375 C 37.429688 33.769531 37.121094 34.023438 36.785156 34.246094 C 36.453125 34.46875 36.097656 34.65625 35.726562 34.8125 C 35.355469 34.964844 34.972656 35.082031 34.578125 35.160156 C 34.1875 35.238281 33.789062 35.277344 33.386719 35.277344 C 32.984375 35.277344 32.585938 35.238281 32.191406 35.160156 C 31.796875 35.082031 31.414062 34.964844 31.042969 34.8125 C 30.671875 34.65625 30.320312 34.46875 29.984375 34.246094 C 29.652344 34.023438 29.34375 33.769531 29.058594 33.484375 C 28.773438 33.199219 28.519531 32.890625 28.296875 32.558594 C 28.074219 32.222656 27.886719 31.871094 27.730469 31.5 C 27.578125 31.128906 27.460938 30.746094 27.382812 30.351562 C 27.304688 29.957031 27.265625 29.558594 27.265625 29.15625 C 27.265625 28.753906 27.304688 28.359375 27.382812 27.964844 C 27.460938 27.570312 27.578125 27.1875 27.730469 26.816406 C 27.886719 26.445312 28.074219 26.089844 28.296875 25.757812 C 28.519531 25.421875 28.773438 25.113281 29.058594 24.828125 C 29.34375 24.546875 29.652344 24.292969 29.984375 24.070312 C 30.320312 23.84375 30.671875 23.65625 31.042969 23.503906 C 31.414062 23.347656 31.796875 23.234375 32.191406 23.15625 C 32.585938 23.078125 32.984375 23.035156 33.386719 23.035156 C 33.789062 23.035156 34.1875 23.078125 34.578125 23.15625 C 34.972656 23.234375 35.355469 23.347656 35.726562 23.503906 C 36.097656 23.65625 36.453125 23.84375 36.785156 24.070312 C 37.121094 24.292969 37.429688 24.546875 37.714844 24.828125 C 37.996094 25.113281 38.25 25.421875 38.476562 25.757812 C 38.699219 26.089844 38.886719 26.445312 39.039062 26.816406 C 39.195312 27.1875 39.308594 27.570312 39.386719 27.964844 C 39.46875 28.359375 39.507812 28.753906 39.507812 29.15625 Z M 39.507812 29.15625 " fill-opacity="1" fill-rule="nonzero"/></svg>