<svg xmlns="http://www.w3.org/2000/svg" xmlns:xlink="http://www.w3.org/1999/xlink" width="90" zoomAndPan="magnify" viewBox="0 0 67.5 67.499996" height="90" preserveAspectRatio="xMidYMid meet" version="1.0"><defs><clipPath id="56fb8e1a3b"><path d="M 1.511719 0.675781 L 65.539062 0.675781 L 65.539062 66.191406 L 1.511719 66.191406 Z M 1.511719 0.675781 " clip-rule="nonzero"/></clipPath></defs><g clip-path="url(#56fb8e1a3b)"><path fill="#ffffff" d="M 61.539062 22.796875 L 60.699219 18.949219 L 60.257812 19.097656 C 59.300781 19.433594 58.457031 19.953125 57.734375 20.664062 C 57.007812 21.378906 56.46875 22.210938 56.117188 23.164062 C 55.753906 24.304688 55.71875 25.457031 56.019531 26.617188 L 55.535156 27.210938 C 53.417969 25.457031 51.03125 24.214844 48.382812 23.480469 L 48.382812 14.503906 C 48.382812 11.566406 46.964844 10.132812 44.042969 10.132812 L 36.855469 10.132812 C 36.230469 7.550781 35.070312 6.675781 32.363281 6.675781 L 32.089844 6.667969 C 31.863281 6.65625 31.640625 6.660156 31.414062 6.683594 C 31.308594 6.707031 31.207031 6.695312 31.105469 6.652344 C 31.074219 6.625 31.023438 6.542969 31 6.292969 C 30.921875 5.585938 30.726562 4.914062 30.414062 4.277344 C 30.101562 3.640625 29.691406 3.078125 29.179688 2.582031 C 28.667969 2.089844 28.089844 1.699219 27.441406 1.414062 C 26.792969 1.125 26.113281 0.953125 25.40625 0.902344 C 24.699219 0.855469 24.003906 0.925781 23.320312 1.121094 C 22.640625 1.316406 22.011719 1.621094 21.433594 2.035156 C 20.859375 2.453125 20.371094 2.953125 19.972656 3.539062 C 19.574219 4.125 19.289062 4.761719 19.113281 5.453125 C 19.074219 5.617188 19.042969 5.78125 19.019531 5.953125 C 18.980469 6.21875 18.929688 6.574219 18.820312 6.652344 C 18.546875 6.746094 18.269531 6.761719 17.988281 6.699219 C 17.824219 6.667969 17.660156 6.660156 17.496094 6.675781 C 14.914062 6.675781 13.671875 7.648438 13.140625 10.132812 L 5.828125 10.132812 C 3.0625 10.136719 1.597656 11.605469 1.597656 14.398438 L 1.597656 62.027344 C 1.570312 62.304688 1.574219 62.582031 1.613281 62.855469 C 1.648438 63.132812 1.710938 63.402344 1.808594 63.664062 C 1.902344 63.925781 2.023438 64.175781 2.171875 64.410156 C 2.324219 64.648438 2.496094 64.863281 2.695312 65.058594 C 2.890625 65.257812 3.105469 65.429688 3.34375 65.578125 C 3.578125 65.730469 3.828125 65.851562 4.089844 65.945312 C 4.351562 66.042969 4.621094 66.105469 4.894531 66.140625 C 5.171875 66.175781 5.449219 66.183594 5.726562 66.15625 L 44.132812 66.15625 C 46.914062 66.15625 48.390625 64.691406 48.390625 61.917969 L 48.390625 58.285156 C 49.273438 58.042969 50.132812 57.738281 50.96875 57.363281 C 51.804688 56.992188 52.609375 56.558594 53.378906 56.0625 C 54.148438 55.566406 54.878906 55.015625 55.566406 54.40625 C 56.25 53.800781 56.886719 53.144531 57.472656 52.441406 C 58.058594 51.738281 58.589844 50.996094 59.0625 50.210938 C 59.535156 49.425781 59.945312 48.609375 60.292969 47.761719 C 60.644531 46.914062 60.925781 46.046875 61.140625 45.15625 C 61.355469 44.265625 61.503906 43.367188 61.582031 42.453125 C 61.792969 40.03125 61.535156 37.660156 60.808594 35.34375 C 60.082031 33.023438 58.945312 30.929688 57.394531 29.058594 L 57.894531 28.644531 C 59.300781 28.914062 60.652344 28.738281 61.941406 28.109375 C 62.773438 27.675781 63.484375 27.09375 64.070312 26.359375 C 64.660156 25.625 65.074219 24.804688 65.3125 23.894531 L 65.421875 23.453125 Z M 16.054688 13.121094 C 16.046875 12.296875 16.046875 11.464844 16.054688 10.640625 C 16.0625 9.867188 16.347656 9.589844 17.113281 9.574219 C 17.664062 9.558594 18.222656 9.566406 18.769531 9.566406 L 20.113281 9.566406 C 21.3125 9.550781 21.785156 9.066406 21.820312 7.859375 L 21.828125 7.507812 C 21.820312 7.199219 21.835938 6.890625 21.871094 6.585938 C 21.914062 6.203125 22.023438 5.84375 22.199219 5.503906 C 22.375 5.164062 22.605469 4.867188 22.890625 4.613281 C 23.175781 4.355469 23.496094 4.160156 23.851562 4.019531 C 24.207031 3.882812 24.578125 3.808594 24.960938 3.804688 L 24.984375 3.804688 C 25.371094 3.804688 25.746094 3.875 26.105469 4.011719 C 26.46875 4.148438 26.792969 4.347656 27.082031 4.605469 C 27.371094 4.863281 27.605469 5.160156 27.78125 5.503906 C 27.960938 5.847656 28.070312 6.210938 28.117188 6.597656 C 28.148438 6.886719 28.148438 7.179688 28.15625 7.46875 C 28.15625 7.660156 28.15625 7.84375 28.167969 8.027344 C 28.148438 8.238281 28.175781 8.441406 28.246094 8.640625 C 28.320312 8.835938 28.429688 9.011719 28.582031 9.160156 C 28.730469 9.308594 28.90625 9.414062 29.101562 9.488281 C 29.300781 9.558594 29.507812 9.582031 29.714844 9.5625 C 30.289062 9.578125 30.855469 9.570312 31.421875 9.570312 C 31.882812 9.570312 32.339844 9.570312 32.796875 9.578125 C 33.65625 9.585938 33.921875 9.851562 33.929688 10.726562 C 33.929688 11.703125 33.9375 12.675781 33.929688 13.652344 C 33.921875 14.46875 33.648438 14.75 32.832031 14.75 C 30.949219 14.757812 29.066406 14.75 27.175781 14.75 L 17.289062 14.75 C 16.289062 14.75 16.054688 14.507812 16.054688 13.484375 Z M 45.472656 61.988281 C 45.472656 63.003906 45.242188 63.246094 44.234375 63.246094 L 5.753906 63.246094 C 5.386719 63.292969 5.054688 63.210938 4.753906 62.996094 C 4.539062 62.695312 4.457031 62.359375 4.503906 61.988281 L 4.511719 49.394531 C 4.519531 43.332031 4.523438 37.269531 4.519531 31.203125 C 4.519531 27.796875 4.515625 24.386719 4.511719 20.96875 L 4.511719 14.355469 C 4.453125 13.964844 4.53125 13.609375 4.753906 13.28125 C 5.085938 13.066406 5.449219 12.984375 5.84375 13.039062 L 13.140625 13.039062 L 13.140625 13.148438 C 13.140625 13.421875 13.140625 13.679688 13.148438 13.9375 C 13.148438 14.429688 13.242188 14.898438 13.425781 15.351562 C 13.613281 15.804688 13.878906 16.207031 14.222656 16.554688 C 14.570312 16.902344 14.96875 17.167969 15.417969 17.359375 C 15.871094 17.546875 16.339844 17.644531 16.832031 17.644531 C 22.121094 17.671875 27.609375 17.671875 33.148438 17.644531 C 33.636719 17.644531 34.109375 17.546875 34.5625 17.359375 C 35.015625 17.171875 35.414062 16.902344 35.757812 16.554688 C 36.105469 16.207031 36.371094 15.808594 36.558594 15.355469 C 36.746094 14.902344 36.835938 14.429688 36.835938 13.9375 C 36.84375 13.707031 36.835938 13.464844 36.835938 13.179688 L 36.835938 13.039062 L 43.976562 13.039062 C 45.324219 13.039062 45.472656 13.1875 45.472656 14.503906 L 45.472656 22.917969 C 44.214844 22.773438 42.953125 22.769531 41.695312 22.894531 C 40.433594 23.023438 39.199219 23.28125 37.992188 23.675781 C 36.789062 24.066406 35.636719 24.582031 34.542969 25.21875 C 33.449219 25.859375 32.433594 26.605469 31.496094 27.460938 L 24.285156 27.460938 C 24.085938 27.457031 23.882812 27.464844 23.683594 27.484375 C 23.511719 27.503906 23.34375 27.550781 23.1875 27.628906 C 23.03125 27.707031 22.894531 27.8125 22.773438 27.941406 C 22.65625 28.074219 22.566406 28.21875 22.5 28.382812 C 22.433594 28.546875 22.402344 28.714844 22.398438 28.890625 C 22.398438 29.066406 22.425781 29.238281 22.488281 29.402344 C 22.546875 29.566406 22.636719 29.714844 22.753906 29.847656 C 22.867188 29.980469 23.003906 30.085938 23.15625 30.167969 C 23.3125 30.25 23.476562 30.304688 23.652344 30.324219 C 23.816406 30.347656 23.980469 30.359375 24.144531 30.359375 L 28.941406 30.359375 C 27.09375 32.957031 26.019531 35.839844 25.71875 39.011719 L 24.269531 39.011719 C 24.066406 39.007812 23.863281 39.015625 23.660156 39.039062 C 23.484375 39.058594 23.320312 39.109375 23.164062 39.191406 C 23.007812 39.269531 22.871094 39.378906 22.753906 39.507812 C 22.636719 39.640625 22.546875 39.789062 22.484375 39.953125 C 22.421875 40.117188 22.394531 40.289062 22.394531 40.464844 C 22.394531 40.640625 22.425781 40.8125 22.492188 40.976562 C 22.554688 41.140625 22.648438 41.285156 22.765625 41.417969 C 22.882812 41.546875 23.019531 41.652344 23.179688 41.730469 C 23.335938 41.8125 23.5 41.859375 23.675781 41.878906 C 23.792969 41.894531 23.910156 41.902344 24.027344 41.902344 L 25.660156 41.902344 C 25.835938 45.03125 26.761719 47.917969 28.433594 50.566406 L 24.183594 50.566406 C 24.144531 50.566406 24.09375 50.558594 24.042969 50.558594 C 23.800781 50.503906 23.578125 50.550781 23.378906 50.699219 L 23.261719 50.808594 C 22.878906 51.082031 22.601562 51.441406 22.4375 51.882812 C 22.347656 52.1875 22.386719 52.476562 22.550781 52.746094 C 22.769531 53.085938 23.074219 53.296875 23.46875 53.378906 C 23.734375 53.433594 24 53.457031 24.269531 53.445312 L 30.722656 53.445312 C 31.558594 54.3125 32.476562 55.089844 33.46875 55.769531 C 34.460938 56.453125 35.511719 57.03125 36.621094 57.503906 C 37.730469 57.972656 38.875 58.328125 40.054688 58.570312 C 41.234375 58.8125 42.429688 58.933594 43.632812 58.9375 C 44.25 58.9375 44.863281 58.902344 45.472656 58.835938 Z M 55.167969 51.03125 C 53.316406 53.140625 51.054688 54.636719 48.390625 55.519531 C 47.441406 55.839844 46.46875 56.054688 45.472656 56.171875 C 45.097656 56.226562 44.714844 56.265625 44.332031 56.277344 C 42.621094 56.371094 40.945312 56.171875 39.300781 55.6875 C 37.65625 55.199219 36.140625 54.453125 34.753906 53.445312 C 34.265625 53.101562 33.800781 52.722656 33.363281 52.3125 C 32.777344 51.769531 32.230469 51.1875 31.722656 50.566406 C 30.71875 49.332031 29.921875 47.976562 29.335938 46.5 C 28.746094 45.019531 28.394531 43.488281 28.273438 41.902344 C 28.25 41.660156 28.242188 41.410156 28.234375 41.171875 C 28.214844 40.449219 28.25 39.730469 28.332031 39.011719 C 28.519531 37.390625 28.960938 35.835938 29.652344 34.355469 C 30.347656 32.875 31.253906 31.542969 32.378906 30.359375 C 32.449219 30.269531 32.527344 30.1875 32.605469 30.109375 C 33.621094 29.066406 34.757812 28.183594 36.019531 27.460938 C 38.378906 26.105469 40.914062 25.429688 43.632812 25.429688 C 44.25 25.425781 44.863281 25.464844 45.472656 25.542969 C 46.980469 25.722656 48.421875 26.121094 49.808594 26.734375 C 51.195312 27.347656 52.460938 28.148438 53.601562 29.144531 L 50.769531 31.867188 C 50.027344 31.300781 49.230469 30.820312 48.382812 30.425781 C 47.453125 29.988281 46.484375 29.6875 45.472656 29.527344 C 44.484375 29.363281 43.496094 29.34375 42.5 29.460938 C 42.007812 29.503906 41.519531 29.582031 41.035156 29.691406 C 40.339844 29.84375 39.664062 30.066406 39.011719 30.351562 C 37.09375 31.191406 35.535156 32.472656 34.339844 34.191406 C 33.292969 35.640625 32.625 37.246094 32.339844 39.011719 C 32.175781 39.972656 32.144531 40.933594 32.238281 41.902344 C 32.382812 43.316406 32.773438 44.660156 33.410156 45.933594 C 34.046875 47.203125 34.890625 48.320312 35.9375 49.28125 C 36.449219 49.765625 37.003906 50.191406 37.601562 50.558594 C 39.125 51.519531 40.78125 52.082031 42.574219 52.238281 C 43.546875 52.339844 44.511719 52.308594 45.472656 52.148438 C 47.460938 51.839844 49.230469 51.050781 50.789062 49.78125 C 51.363281 49.316406 51.890625 48.800781 52.367188 48.230469 C 52.84375 47.664062 53.261719 47.054688 53.625 46.410156 C 53.984375 45.761719 54.277344 45.082031 54.507812 44.378906 C 54.738281 43.675781 54.898438 42.953125 54.988281 42.21875 C 55.082031 41.484375 55.101562 40.746094 55.050781 40.003906 C 55 39.265625 54.878906 38.539062 54.6875 37.820312 C 54.496094 37.105469 54.238281 36.414062 53.914062 35.746094 C 53.59375 35.078125 53.207031 34.449219 52.761719 33.855469 L 55.492188 31.101562 C 56.078125 31.796875 56.59375 32.539062 57.046875 33.328125 C 57.496094 34.113281 57.875 34.9375 58.175781 35.792969 C 58.480469 36.648438 58.707031 37.523438 58.851562 38.421875 C 59 39.316406 59.0625 40.21875 59.050781 41.125 C 59.035156 42.035156 58.941406 42.933594 58.765625 43.824219 C 58.589844 44.714844 58.335938 45.582031 58.003906 46.429688 C 57.671875 47.273438 57.269531 48.085938 56.792969 48.855469 C 56.316406 49.628906 55.773438 50.355469 55.167969 51.03125 Z M 37.976562 47.566406 C 37.128906 46.847656 36.441406 46 35.914062 45.019531 C 35.386719 44.042969 35.058594 43 34.929688 41.894531 C 34.914062 41.746094 34.894531 41.59375 34.886719 41.4375 C 34.832031 40.621094 34.890625 39.8125 35.070312 39.011719 C 35.402344 37.453125 36.105469 36.078125 37.179688 34.898438 C 37.960938 34.042969 38.878906 33.367188 39.933594 32.878906 C 40.984375 32.390625 42.089844 32.121094 43.25 32.074219 C 43.390625 32.066406 43.535156 32.066406 43.683594 32.066406 C 44.289062 32.0625 44.882812 32.125 45.472656 32.257812 C 46.527344 32.46875 47.496094 32.875 48.382812 33.480469 C 48.5625 33.605469 48.738281 33.742188 48.914062 33.882812 L 48.382812 34.414062 L 46.414062 36.378906 C 46.113281 36.21875 45.800781 36.085938 45.472656 35.980469 C 44.183594 35.503906 42.894531 35.515625 41.609375 36.015625 C 41.054688 36.25 40.554688 36.574219 40.109375 36.984375 C 39.664062 37.394531 39.300781 37.871094 39.023438 38.40625 C 38.742188 38.941406 38.558594 39.507812 38.476562 40.109375 C 38.394531 40.707031 38.414062 41.300781 38.535156 41.894531 C 38.707031 42.777344 39.089844 43.554688 39.675781 44.234375 C 40.027344 44.640625 40.429688 44.984375 40.882812 45.269531 C 41.335938 45.550781 41.820312 45.761719 42.339844 45.894531 C 42.855469 46.03125 43.382812 46.085938 43.917969 46.0625 C 44.453125 46.039062 44.972656 45.933594 45.472656 45.75 C 45.757812 45.652344 46.027344 45.523438 46.28125 45.367188 C 47.378906 44.628906 48.078125 43.613281 48.382812 42.328125 C 48.761719 40.894531 48.640625 39.503906 48.023438 38.152344 L 50.570312 35.628906 C 52.8125 38.09375 53.230469 43.066406 50.386719 46.4375 C 49.808594 47.128906 49.140625 47.722656 48.390625 48.222656 C 47.492188 48.804688 46.519531 49.210938 45.472656 49.4375 C 45.085938 49.527344 44.691406 49.589844 44.292969 49.621094 C 43.144531 49.71875 42.023438 49.585938 40.925781 49.230469 C 39.832031 48.871094 38.847656 48.316406 37.976562 47.5625 Z M 41.550781 39.320312 L 41.699219 39.121094 C 42.167969 38.558594 42.769531 38.28125 43.5 38.289062 C 43.726562 38.289062 43.949219 38.316406 44.167969 38.371094 L 42.84375 39.789062 C 42.800781 39.832031 42.746094 39.894531 42.6875 39.96875 C 42.6875 39.96875 42.613281 40.0625 42.558594 40.144531 C 42.347656 40.484375 42.292969 40.84375 42.390625 41.226562 C 42.46875 41.449219 42.59375 41.632812 42.765625 41.785156 C 42.828125 41.847656 42.898438 41.902344 42.96875 41.953125 C 43.054688 42.011719 43.148438 42.058594 43.246094 42.09375 C 43.257812 42.097656 43.265625 42.105469 43.277344 42.109375 C 43.289062 42.113281 43.304688 42.109375 43.316406 42.117188 C 43.429688 42.148438 43.542969 42.167969 43.660156 42.171875 C 44.078125 42.136719 44.425781 41.957031 44.699219 41.632812 C 44.964844 41.347656 45.222656 41.050781 45.472656 40.765625 C 45.550781 40.683594 45.617188 40.609375 45.683594 40.523438 L 46.03125 40.175781 C 46.179688 40.605469 46.207031 41.046875 46.105469 41.492188 C 46.003906 41.9375 45.792969 42.324219 45.472656 42.648438 C 45.378906 42.742188 45.28125 42.832031 45.175781 42.914062 C 44.929688 43.09375 44.660156 43.226562 44.371094 43.3125 C 44.078125 43.398438 43.78125 43.433594 43.476562 43.414062 C 43.171875 43.394531 42.882812 43.328125 42.601562 43.207031 C 42.324219 43.085938 42.074219 42.921875 41.851562 42.714844 C 41.601562 42.476562 41.410156 42.199219 41.277344 41.882812 C 41.101562 41.460938 41.035156 41.019531 41.085938 40.566406 C 41.132812 40.109375 41.289062 39.695312 41.550781 39.316406 Z M 60.390625 25.894531 C 59.820312 26.183594 59.230469 26.222656 58.625 26.011719 C 58.285156 24.585938 58.410156 24.003906 59.074219 23.429688 L 59.457031 24.976562 L 61.050781 25.328125 C 60.871094 25.5625 60.652344 25.75 60.390625 25.890625 Z M 7.800781 29.921875 C 7.597656 29.71875 7.464844 29.472656 7.410156 29.1875 C 7.351562 28.902344 7.375 28.628906 7.484375 28.359375 C 7.59375 28.089844 7.769531 27.875 8.007812 27.710938 C 8.246094 27.546875 8.511719 27.460938 8.800781 27.457031 C 9.222656 27.46875 9.585938 27.625 9.882812 27.921875 C 10.46875 28.507812 11.023438 29.105469 11.609375 29.730469 L 12.125 30.28125 L 16.363281 25.199219 C 16.554688 24.964844 16.746094 24.734375 16.957031 24.515625 C 17.074219 24.371094 17.214844 24.25 17.378906 24.160156 C 17.546875 24.066406 17.722656 24.011719 17.910156 23.992188 C 18.097656 23.972656 18.28125 23.988281 18.460938 24.042969 C 18.644531 24.09375 18.808594 24.179688 18.953125 24.300781 C 19.269531 24.542969 19.453125 24.863281 19.503906 25.257812 C 19.542969 25.679688 19.425781 26.054688 19.152344 26.382812 C 18.488281 27.214844 17.796875 28.039062 17.113281 28.855469 L 15.457031 30.839844 C 14.804688 31.613281 14.15625 32.386719 13.523438 33.171875 C 13.246094 33.570312 12.863281 33.796875 12.382812 33.855469 C 12.359375 33.859375 12.332031 33.863281 12.308594 33.863281 C 11.90625 33.847656 11.566406 33.695312 11.292969 33.402344 C 10.257812 32.421875 9.183594 31.347656 7.800781 29.921875 Z M 19.3125 37.707031 C 19.214844 37.890625 19.089844 38.054688 18.945312 38.203125 L 18.855469 38.3125 C 17.128906 40.386719 15.40625 42.457031 13.683594 44.519531 C 13.371094 45.007812 12.929688 45.296875 12.359375 45.382812 L 12.308594 45.382812 C 11.746094 45.320312 11.292969 45.070312 10.941406 44.625 C 9.917969 43.609375 8.933594 42.628906 7.953125 41.636719 C 7.78125 41.507812 7.648438 41.351562 7.546875 41.164062 C 7.445312 40.976562 7.390625 40.777344 7.375 40.566406 C 7.359375 40.355469 7.390625 40.152344 7.464844 39.953125 C 7.542969 39.753906 7.652344 39.582031 7.804688 39.429688 C 7.953125 39.28125 8.128906 39.171875 8.328125 39.097656 C 8.527344 39.023438 8.734375 38.996094 8.945312 39.011719 C 9.15625 39.027344 9.355469 39.085938 9.539062 39.1875 C 9.726562 39.289062 9.882812 39.425781 10.007812 39.597656 C 10.550781 40.136719 11.082031 40.6875 11.648438 41.261719 L 12.15625 41.792969 L 16.457031 36.648438 C 16.652344 36.398438 16.863281 36.160156 17.089844 35.9375 C 17.210938 35.804688 17.355469 35.699219 17.519531 35.621094 C 17.6875 35.546875 17.859375 35.503906 18.042969 35.496094 C 18.226562 35.488281 18.402344 35.515625 18.574219 35.582031 C 18.742188 35.644531 18.894531 35.738281 19.027344 35.863281 C 19.164062 35.972656 19.273438 36.101562 19.359375 36.25 C 19.445312 36.402344 19.5 36.558594 19.527344 36.730469 C 19.550781 36.898438 19.546875 37.070312 19.507812 37.238281 C 19.472656 37.40625 19.40625 37.5625 19.3125 37.707031 Z M 19.011719 47.449219 C 19.671875 48.023438 19.652344 48.890625 18.980469 49.714844 C 18.519531 50.273438 18.0625 50.824219 17.605469 51.363281 L 15.980469 53.320312 C 15.191406 54.261719 14.398438 55.210938 13.605469 56.164062 C 13.304688 56.605469 12.890625 56.859375 12.359375 56.929688 C 12.339844 56.933594 12.320312 56.9375 12.300781 56.9375 C 11.808594 56.894531 11.402344 56.6875 11.082031 56.3125 C 10.027344 55.261719 8.96875 54.214844 7.925781 53.15625 C 7.574219 52.824219 7.394531 52.414062 7.386719 51.929688 C 7.398438 51.535156 7.550781 51.207031 7.84375 50.941406 C 7.992188 50.804688 8.164062 50.703125 8.359375 50.640625 C 8.550781 50.574219 8.746094 50.550781 8.949219 50.566406 C 9.152344 50.582031 9.34375 50.636719 9.523438 50.730469 C 9.703125 50.824219 9.855469 50.949219 9.984375 51.105469 C 10.542969 51.664062 11.082031 52.230469 11.648438 52.824219 L 12.15625 53.355469 L 16.4375 48.214844 C 16.53125 48.101562 16.628906 47.984375 16.730469 47.867188 C 17.050781 47.425781 17.484375 47.164062 18.019531 47.082031 C 18.402344 47.066406 18.734375 47.1875 19.011719 47.449219 Z M 19.011719 47.449219 " fill-opacity="1" fill-rule="nonzero"/></g></svg>