<svg xmlns="http://www.w3.org/2000/svg" xmlns:xlink="http://www.w3.org/1999/xlink" width="90" zoomAndPan="magnify" viewBox="0 0 67.5 67.499996" height="90" preserveAspectRatio="xMidYMid meet" version="1.0"><defs><clipPath id="023908d788"><path d="M 4.039062 17 L 62.851562 17 L 62.851562 66.265625 L 4.039062 66.265625 Z M 4.039062 17 " clip-rule="nonzero"/></clipPath><clipPath id="48498835df"><path d="M 27 0.75 L 45 0.75 L 45 6 L 27 6 Z M 27 0.75 " clip-rule="nonzero"/></clipPath></defs><g clip-path="url(#023908d788)"><path fill="#ffffff" d="M 59.078125 40.261719 L 49.628906 40.261719 L 49.628906 22.0625 C 49.628906 19.324219 47.398438 17.09375 44.660156 17.09375 L 27.78125 17.09375 C 25.042969 17.09375 22.8125 19.324219 22.8125 22.0625 L 22.8125 22.488281 L 8.511719 22.488281 C 7.273438 22.488281 6.125 23.058594 5.273438 24.09375 C 4.476562 25.0625 4.039062 26.335938 4.039062 27.679688 L 4.039062 41.277344 C 4.039062 42.621094 4.476562 43.894531 5.273438 44.863281 C 6.125 45.898438 7.273438 46.46875 8.511719 46.46875 L 22.8125 46.46875 C 22.8125 46.476562 22.8125 46.484375 22.8125 46.492188 L 22.8125 61.269531 C 22.8125 64.011719 25.042969 66.238281 27.78125 66.238281 L 44.660156 66.238281 C 47.398438 66.238281 49.628906 64.011719 49.628906 61.269531 L 49.628906 57.183594 L 59.078125 57.183594 C 61.21875 57.183594 62.957031 55.445312 62.957031 53.308594 L 62.957031 44.136719 C 62.957031 42 61.21875 40.261719 59.078125 40.261719 Z M 7.058594 43.394531 C 6.597656 42.839844 6.347656 42.085938 6.347656 41.277344 L 6.347656 27.679688 C 6.347656 26.871094 6.597656 26.117188 7.058594 25.5625 C 7.460938 25.070312 7.976562 24.800781 8.511719 24.800781 L 25.804688 24.800781 C 26.339844 24.800781 26.855469 25.070312 27.261719 25.5625 C 27.71875 26.117188 27.96875 26.871094 27.96875 27.679688 L 27.96875 47.421875 L 24.652344 44.453125 C 24.441406 44.261719 24.167969 44.15625 23.882812 44.15625 L 8.511719 44.15625 C 7.976562 44.15625 7.460938 43.886719 7.058594 43.394531 Z M 44.660156 63.71875 L 27.78125 63.71875 C 26.429688 63.71875 25.332031 62.621094 25.332031 61.269531 L 25.332031 48.160156 L 28.355469 50.871094 C 28.570312 51.0625 28.847656 51.164062 29.125 51.164062 C 29.285156 51.164062 29.445312 51.132812 29.597656 51.0625 C 30.011719 50.878906 30.28125 50.464844 30.28125 50.007812 L 30.28125 27.679688 C 30.28125 26.335938 29.84375 25.0625 29.046875 24.09375 C 28.195312 23.058594 27.042969 22.488281 25.804688 22.488281 L 25.332031 22.488281 L 25.332031 22.0625 C 25.332031 20.710938 26.429688 19.613281 27.78125 19.613281 L 44.660156 19.613281 C 46.007812 19.613281 47.109375 20.710938 47.109375 22.0625 L 47.109375 40.261719 L 46.210938 40.261719 C 44.074219 40.261719 42.332031 42 42.332031 44.136719 L 42.332031 60.484375 C 42.332031 60.957031 42.621094 61.378906 43.058594 61.558594 C 43.195312 61.613281 43.34375 61.640625 43.488281 61.640625 C 43.796875 61.640625 44.097656 61.519531 44.320312 61.289062 L 47.109375 58.398438 L 47.109375 61.269531 C 47.109375 62.621094 46.007812 63.71875 44.660156 63.71875 Z M 60.644531 53.308594 C 60.644531 54.171875 59.945312 54.875 59.078125 54.875 L 47.785156 54.875 C 47.472656 54.875 47.171875 55.003906 46.953125 55.230469 L 44.644531 57.625 L 44.644531 44.136719 C 44.644531 43.273438 45.347656 42.570312 46.210938 42.570312 L 59.078125 42.570312 C 59.945312 42.570312 60.644531 43.273438 60.644531 44.136719 Z M 60.644531 53.308594 " fill-opacity="1" fill-rule="nonzero"/></g><path fill="#ffffff" d="M 52.710938 44.617188 C 52.144531 44.242188 51.480469 44.039062 50.785156 44.039062 C 49.855469 44.039062 48.980469 44.402344 48.324219 45.0625 C 46.964844 46.421875 46.964844 48.628906 48.324219 49.988281 L 48.597656 50.265625 L 51.890625 53.558594 C 52.117188 53.785156 52.414062 53.898438 52.707031 53.898438 C 53.003906 53.898438 53.300781 53.785156 53.523438 53.558594 L 56.820312 50.265625 C 56.820312 50.265625 56.820312 50.261719 56.820312 50.261719 L 57.09375 49.988281 C 57.753906 49.332031 58.113281 48.457031 58.113281 47.527344 C 58.113281 46.59375 57.753906 45.71875 57.09375 45.0625 C 55.90625 43.871094 54.0625 43.722656 52.710938 44.617188 Z M 49.957031 48.355469 C 49.734375 48.132812 49.613281 47.839844 49.613281 47.527344 C 49.613281 47.210938 49.734375 46.917969 49.957031 46.695312 C 50.179688 46.472656 50.472656 46.351562 50.789062 46.351562 C 51.101562 46.351562 51.394531 46.472656 51.617188 46.695312 L 51.890625 46.96875 C 51.960938 47.039062 52.039062 47.097656 52.121094 47.148438 C 52.527344 47.386719 53.046875 47.359375 53.421875 47.0625 C 53.425781 47.058594 53.433594 47.054688 53.4375 47.046875 C 53.46875 47.023438 53.496094 46.996094 53.527344 46.96875 L 53.800781 46.695312 C 54.023438 46.472656 54.316406 46.351562 54.628906 46.351562 C 54.945312 46.351562 55.238281 46.472656 55.460938 46.695312 C 55.683594 46.917969 55.804688 47.210938 55.804688 47.523438 C 55.804688 47.839844 55.683594 48.132812 55.460938 48.355469 L 52.710938 51.109375 Z M 49.957031 48.355469 " fill-opacity="1" fill-rule="nonzero"/><path fill="#ffffff" d="M 25.410156 40.390625 C 25.410156 40.085938 25.351562 39.792969 25.242188 39.527344 C 25.5625 39.132812 25.753906 38.628906 25.753906 38.082031 C 25.753906 37.734375 25.675781 37.402344 25.535156 37.105469 C 25.804688 36.726562 25.960938 36.269531 25.960938 35.769531 C 25.960938 35.5 25.914062 35.238281 25.828125 34.992188 C 26.191406 34.585938 26.410156 34.050781 26.410156 33.460938 C 26.410156 32.1875 25.375 31.152344 24.101562 31.152344 L 19.855469 31.152344 C 19.90625 30.25 19.890625 29.34375 19.8125 28.445312 C 19.78125 26.847656 18.472656 25.558594 16.867188 25.558594 C 15.675781 25.558594 14.703125 26.53125 14.703125 27.726562 L 14.703125 28.332031 C 14.703125 29.105469 14.609375 29.878906 14.421875 30.628906 C 14.25 31.324219 13.628906 31.808594 12.914062 31.808594 L 9.695312 31.808594 C 9.058594 31.808594 8.539062 32.328125 8.539062 32.964844 L 8.539062 41.546875 C 8.539062 42.183594 9.058594 42.699219 9.695312 42.699219 L 23.097656 42.699219 C 24.375 42.699219 25.410156 41.664062 25.410156 40.390625 Z M 11.757812 40.390625 L 10.851562 40.390625 L 10.851562 34.117188 L 11.757812 34.117188 Z M 23.441406 35.769531 C 22.804688 35.769531 22.289062 36.289062 22.289062 36.925781 C 22.289062 37.550781 22.785156 38.0625 23.40625 38.082031 L 23.097656 38.082031 C 22.460938 38.082031 21.945312 38.597656 21.945312 39.234375 C 21.945312 39.863281 22.441406 40.371094 23.0625 40.390625 L 14.066406 40.390625 L 14.066406 33.945312 C 15.332031 33.550781 16.332031 32.523438 16.664062 31.183594 C 16.894531 30.253906 17.011719 29.292969 17.011719 28.332031 L 17.011719 27.886719 C 17.292969 27.953125 17.5 28.203125 17.5 28.503906 C 17.5 28.535156 17.503906 28.570312 17.503906 28.605469 C 17.605469 29.722656 17.59375 30.855469 17.472656 31.972656 L 17.449219 32.179688 C 17.414062 32.507812 17.515625 32.832031 17.738281 33.078125 C 17.957031 33.320312 18.269531 33.460938 18.597656 33.460938 L 23.617188 33.460938 C 22.996094 33.480469 22.496094 33.992188 22.496094 34.617188 C 22.496094 35.242188 22.996094 35.753906 23.617188 35.769531 Z M 23.441406 35.769531 " fill-opacity="1" fill-rule="nonzero"/><path fill="#ffffff" d="M 37.765625 12.433594 C 37.765625 12.640625 37.726562 12.835938 37.648438 13.023438 C 37.570312 13.214844 37.457031 13.382812 37.3125 13.527344 C 37.167969 13.671875 37 13.78125 36.8125 13.863281 C 36.621094 13.941406 36.425781 13.980469 36.21875 13.980469 C 36.015625 13.980469 35.816406 13.941406 35.628906 13.863281 C 35.441406 13.78125 35.273438 13.671875 35.128906 13.527344 C 34.984375 13.382812 34.871094 13.214844 34.792969 13.023438 C 34.714844 12.835938 34.675781 12.640625 34.675781 12.433594 C 34.675781 12.230469 34.714844 12.03125 34.792969 11.84375 C 34.871094 11.652344 34.984375 11.484375 35.128906 11.339844 C 35.273438 11.195312 35.441406 11.085938 35.628906 11.007812 C 35.816406 10.929688 36.015625 10.890625 36.21875 10.890625 C 36.425781 10.890625 36.621094 10.929688 36.8125 11.007812 C 37 11.085938 37.167969 11.195312 37.3125 11.339844 C 37.457031 11.484375 37.570312 11.652344 37.648438 11.84375 C 37.726562 12.03125 37.765625 12.230469 37.765625 12.433594 Z M 37.765625 12.433594 " fill-opacity="1" fill-rule="nonzero"/><g clip-path="url(#48498835df)"><path fill="#ffffff" d="M 29.453125 5.667969 C 31.261719 3.859375 33.664062 2.863281 36.21875 2.863281 C 38.777344 2.863281 41.179688 3.859375 42.988281 5.667969 C 43.191406 5.871094 43.460938 5.976562 43.730469 5.976562 C 43.996094 5.976562 44.265625 5.871094 44.472656 5.667969 C 44.882812 5.257812 44.882812 4.59375 44.472656 4.183594 C 42.265625 1.980469 39.335938 0.765625 36.21875 0.765625 C 33.101562 0.765625 30.171875 1.980469 27.96875 4.183594 C 27.558594 4.59375 27.558594 5.257812 27.96875 5.667969 C 28.378906 6.078125 29.042969 6.078125 29.453125 5.667969 Z M 29.453125 5.667969 " fill-opacity="1" fill-rule="nonzero"/></g><path fill="#ffffff" d="M 39.621094 10.515625 C 40.03125 10.105469 40.03125 9.441406 39.621094 9.03125 C 38.714844 8.121094 37.503906 7.621094 36.21875 7.621094 C 34.933594 7.621094 33.726562 8.121094 32.816406 9.03125 C 32.40625 9.441406 32.40625 10.105469 32.816406 10.515625 C 33.023438 10.722656 33.292969 10.824219 33.558594 10.824219 C 33.828125 10.824219 34.097656 10.722656 34.300781 10.515625 C 34.816406 10.003906 35.496094 9.722656 36.21875 9.722656 C 36.945312 9.722656 37.625 10.003906 38.136719 10.515625 C 38.546875 10.925781 39.210938 10.925781 39.621094 10.515625 Z M 39.621094 10.515625 " fill-opacity="1" fill-rule="nonzero"/><path fill="#ffffff" d="M 41.265625 8.4375 C 41.535156 8.4375 41.804688 8.335938 42.007812 8.128906 C 42.417969 7.71875 42.417969 7.054688 42.007812 6.644531 C 40.460938 5.097656 38.40625 4.246094 36.21875 4.246094 C 34.035156 4.246094 31.976562 5.097656 30.433594 6.644531 C 30.023438 7.054688 30.023438 7.71875 30.433594 8.128906 C 30.839844 8.539062 31.507812 8.539062 31.917969 8.128906 C 33.066406 6.980469 34.59375 6.347656 36.21875 6.347656 C 37.847656 6.347656 39.375 6.980469 40.523438 8.128906 C 40.730469 8.335938 40.996094 8.4375 41.265625 8.4375 Z M 41.265625 8.4375 " fill-opacity="1" fill-rule="nonzero"/><path fill="#ffffff" d="M 33.828125 24.160156 L 38.417969 24.160156 C 39.058594 24.160156 39.574219 23.644531 39.574219 23.007812 C 39.574219 22.367188 39.058594 21.851562 38.417969 21.851562 L 33.828125 21.851562 C 33.191406 21.851562 32.671875 22.367188 32.671875 23.007812 C 32.671875 23.644531 33.191406 24.160156 33.828125 24.160156 Z M 33.828125 24.160156 " fill-opacity="1" fill-rule="nonzero"/><path fill="#ffffff" d="M 37.761719 60.226562 C 37.761719 60.453125 37.71875 60.671875 37.632812 60.878906 C 37.546875 61.089844 37.421875 61.273438 37.261719 61.433594 C 37.101562 61.59375 36.917969 61.71875 36.710938 61.804688 C 36.5 61.890625 36.28125 61.933594 36.054688 61.933594 C 35.828125 61.933594 35.613281 61.890625 35.402344 61.804688 C 35.191406 61.71875 35.007812 61.59375 34.847656 61.433594 C 34.6875 61.273438 34.566406 61.089844 34.476562 60.878906 C 34.390625 60.671875 34.347656 60.453125 34.347656 60.226562 C 34.347656 60 34.390625 59.78125 34.476562 59.570312 C 34.566406 59.363281 34.6875 59.179688 34.847656 59.019531 C 35.007812 58.859375 35.191406 58.734375 35.402344 58.648438 C 35.613281 58.5625 35.828125 58.519531 36.054688 58.519531 C 36.28125 58.519531 36.5 58.5625 36.710938 58.648438 C 36.917969 58.734375 37.101562 58.859375 37.261719 59.019531 C 37.421875 59.179688 37.546875 59.363281 37.632812 59.574219 C 37.71875 59.78125 37.761719 60 37.761719 60.226562 Z M 37.761719 60.226562 " fill-opacity="1" fill-rule="nonzero"/><path fill="#ffffff" d="M 32.800781 28.253906 L 35.589844 28.253906 L 35.589844 30.566406 L 32.800781 30.566406 Z M 32.800781 28.253906 " fill-opacity="1" fill-rule="nonzero"/><path fill="#ffffff" d="M 37.910156 28.253906 L 44.234375 28.253906 L 44.234375 30.566406 L 37.910156 30.566406 Z M 37.910156 28.253906 " fill-opacity="1" fill-rule="nonzero"/><path fill="#ffffff" d="M 32.664062 32.183594 L 44.234375 32.183594 L 44.234375 34.496094 L 32.664062 34.496094 Z M 32.664062 32.183594 " fill-opacity="1" fill-rule="nonzero"/><path fill="#ffffff" d="M 32.664062 36.113281 L 44.234375 36.113281 L 44.234375 38.421875 L 32.664062 38.421875 Z M 32.664062 36.113281 " fill-opacity="1" fill-rule="nonzero"/><path fill="#ffffff" d="M 32.679688 53.324219 L 40.140625 53.324219 L 40.140625 55.632812 L 32.679688 55.632812 Z M 32.679688 53.324219 " fill-opacity="1" fill-rule="nonzero"/><path fill="#ffffff" d="M 32.679688 49.550781 L 40.140625 49.550781 L 40.140625 51.863281 L 32.679688 51.863281 Z M 32.679688 49.550781 " fill-opacity="1" fill-rule="nonzero"/><path fill="#ffffff" d="M 27.953125 53.324219 L 30.378906 53.324219 L 30.378906 55.632812 L 27.953125 55.632812 Z M 27.953125 53.324219 " fill-opacity="1" fill-rule="nonzero"/></svg>