<svg xmlns="http://www.w3.org/2000/svg" xmlns:xlink="http://www.w3.org/1999/xlink" width="90" zoomAndPan="magnify" viewBox="0 0 67.5 67.499996" height="90" preserveAspectRatio="xMidYMid meet" version="1.0"><defs><clipPath id="716d03369a"><path d="M 9.40625 1 L 57.796875 1 L 57.796875 65.707031 L 9.40625 65.707031 Z M 9.40625 1 " clip-rule="nonzero"/></clipPath></defs><g clip-path="url(#716d03369a)"><path fill="#070707" d="M 52.078125 3.976562 L 49.984375 3.976562 L 49.921875 3.671875 C 49.824219 3.207031 49.734375 2.765625 49.65625 2.316406 C 49.640625 2.132812 49.589844 1.960938 49.503906 1.796875 C 49.417969 1.636719 49.304688 1.496094 49.164062 1.378906 C 49.023438 1.257812 48.863281 1.171875 48.6875 1.117188 C 48.515625 1.0625 48.335938 1.042969 48.152344 1.058594 C 38.34375 1.0625 28.535156 1.0625 18.730469 1.058594 C 18.546875 1.042969 18.367188 1.0625 18.191406 1.117188 C 18.015625 1.171875 17.859375 1.261719 17.71875 1.378906 C 17.574219 1.496094 17.464844 1.636719 17.378906 1.800781 C 17.292969 1.964844 17.242188 2.136719 17.226562 2.320312 C 17.140625 2.777344 17.046875 3.230469 16.949219 3.691406 L 16.890625 3.976562 L 16.382812 3.976562 C 15.777344 3.976562 15.1875 3.976562 14.597656 3.976562 C 14.257812 3.96875 13.917969 3.992188 13.582031 4.050781 C 13.246094 4.113281 12.917969 4.203125 12.601562 4.332031 C 12.285156 4.457031 11.984375 4.613281 11.699219 4.800781 C 11.414062 4.988281 11.152344 5.199219 10.910156 5.441406 C 10.667969 5.679688 10.449219 5.941406 10.261719 6.226562 C 10.074219 6.511719 9.914062 6.8125 9.785156 7.128906 C 9.660156 7.445312 9.5625 7.769531 9.5 8.105469 C 9.441406 8.441406 9.414062 8.777344 9.417969 9.121094 C 9.398438 11.714844 9.398438 13.820312 9.417969 15.753906 C 9.4375 16.542969 9.523438 17.324219 9.675781 18.097656 C 9.828125 18.875 10.042969 19.628906 10.320312 20.367188 C 10.597656 21.105469 10.933594 21.816406 11.332031 22.496094 C 11.730469 23.179688 12.179688 23.824219 12.6875 24.429688 C 13.191406 25.035156 13.742188 25.59375 14.339844 26.109375 C 14.941406 26.621094 15.578125 27.082031 16.253906 27.488281 C 16.929688 27.894531 17.636719 28.242188 18.371094 28.53125 C 19.101562 28.820312 19.855469 29.046875 20.628906 29.207031 C 20.921875 29.242188 21.136719 29.390625 21.277344 29.648438 C 22.964844 32.523438 25.269531 34.765625 28.191406 36.371094 C 28.347656 36.484375 28.457031 36.628906 28.53125 36.804688 C 29.4375 38.789062 29.890625 40.871094 29.894531 43.046875 C 29.894531 43.238281 29.894531 43.25 29.605469 43.335938 C 27.164062 44.058594 25.566406 45.199219 24.609375 46.886719 C 24.523438 46.933594 24.429688 46.957031 24.328125 46.960938 C 23.761719 46.980469 23.195312 46.976562 22.625 46.976562 C 22.3125 46.976562 22 46.976562 21.6875 46.976562 C 20.488281 46.984375 20.019531 47.457031 20.015625 48.667969 L 20.015625 55.488281 C 20.015625 55.597656 20.011719 55.707031 20.007812 55.828125 L 19.496094 55.828125 C 18.820312 55.828125 18.160156 55.828125 17.5 55.828125 C 16.421875 55.839844 15.9375 56.328125 15.929688 57.417969 C 15.921875 58.632812 15.921875 63.234375 15.929688 64.445312 C 15.933594 65.570312 16.429688 66.070312 17.539062 66.070312 L 49.347656 66.070312 C 50.449219 66.070312 50.945312 65.566406 50.949219 64.441406 C 50.957031 63.246094 50.957031 58.667969 50.949219 57.476562 C 50.945312 56.308594 50.46875 55.832031 49.304688 55.824219 C 48.667969 55.816406 48.03125 55.824219 47.375 55.824219 L 46.867188 55.824219 L 46.867188 52.734375 C 46.867188 50.226562 46.867188 51.105469 46.867188 48.597656 C 46.867188 47.476562 46.386719 46.988281 45.257812 46.976562 L 44.894531 46.964844 C 44.492188 46.945312 44.089844 46.949219 43.6875 46.980469 C 43.285156 47.074219 42.890625 47.035156 42.511719 46.863281 C 42.132812 46.691406 41.84375 46.425781 41.648438 46.058594 C 40.613281 44.464844 38.824219 43.769531 37.207031 43.304688 C 37.132812 43.285156 37.0625 43.257812 36.996094 43.21875 C 36.984375 43.179688 36.980469 43.140625 36.984375 43.101562 C 36.976562 40.855469 37.449219 38.714844 38.402344 36.679688 C 38.453125 36.566406 38.53125 36.46875 38.632812 36.394531 C 41.640625 34.753906 44.007812 32.449219 45.734375 29.488281 C 45.839844 29.355469 45.972656 29.273438 46.132812 29.234375 C 46.933594 29.074219 47.710938 28.851562 48.472656 28.554688 C 49.230469 28.261719 49.960938 27.90625 50.65625 27.488281 C 51.355469 27.066406 52.011719 26.589844 52.625 26.054688 C 53.242188 25.523438 53.804688 24.9375 54.320312 24.308594 C 54.832031 23.675781 55.289062 23.003906 55.683594 22.292969 C 56.082031 21.582031 56.414062 20.839844 56.683594 20.074219 C 56.949219 19.304688 57.148438 18.515625 57.28125 17.714844 C 57.414062 16.910156 57.476562 16.101562 57.464844 15.285156 C 57.472656 13.320312 57.472656 11.355469 57.464844 9.386719 C 57.492188 9.027344 57.476562 8.667969 57.425781 8.308594 C 57.371094 7.953125 57.285156 7.605469 57.15625 7.265625 C 57.03125 6.925781 56.871094 6.605469 56.675781 6.300781 C 56.480469 5.996094 56.253906 5.71875 56 5.460938 C 55.746094 5.203125 55.464844 4.980469 55.164062 4.78125 C 54.859375 4.585938 54.539062 4.421875 54.199219 4.296875 C 53.863281 4.167969 53.515625 4.078125 53.15625 4.023438 C 52.800781 3.96875 52.441406 3.953125 52.078125 3.976562 Z M 18.664062 63.351562 L 18.664062 58.546875 L 48.238281 58.546875 L 48.238281 63.351562 Z M 22.746094 55.71875 L 22.746094 49.683594 L 44.136719 49.683594 L 44.136719 55.714844 Z M 32.265625 34.871094 C 31.035156 34.675781 29.875 34.28125 28.785156 33.679688 C 27.695312 33.078125 26.742188 32.308594 25.921875 31.371094 C 23.160156 28.347656 21.304688 24.839844 20.347656 20.859375 C 18.972656 15.84375 18.65625 10.761719 19.398438 5.613281 C 19.429688 5.398438 19.445312 5.15625 19.457031 4.917969 C 19.476562 4.53125 19.511719 3.945312 19.667969 3.816406 C 19.871094 3.707031 20.085938 3.664062 20.316406 3.6875 C 20.515625 3.6875 20.726562 3.699219 20.917969 3.710938 C 21.140625 3.726562 21.339844 3.734375 21.5625 3.742188 C 24.503906 3.734375 27.445312 3.734375 30.386719 3.738281 L 36.585938 3.738281 C 40.015625 3.738281 43.445312 3.738281 46.871094 3.722656 C 47.214844 3.722656 47.230469 3.730469 47.285156 4.070312 C 48.582031 12.214844 47.707031 19.390625 44.605469 26.007812 C 43.582031 28.304688 42.148438 30.308594 40.304688 32.019531 C 37.746094 34.328125 35.113281 35.257812 32.265625 34.871094 Z M 19.363281 26.054688 C 18.316406 25.648438 17.351562 25.097656 16.46875 24.40625 C 15.585938 23.714844 14.820312 22.90625 14.175781 21.988281 C 13.53125 21.070312 13.035156 20.078125 12.683594 19.011719 C 12.332031 17.945312 12.140625 16.851562 12.113281 15.730469 C 12.074219 13.480469 12.089844 11.230469 12.109375 9.121094 C 12.097656 8.796875 12.148438 8.480469 12.265625 8.179688 C 12.382812 7.875 12.558594 7.605469 12.785156 7.375 C 13.011719 7.140625 13.277344 6.964844 13.578125 6.839844 C 13.882812 6.71875 14.195312 6.660156 14.519531 6.667969 C 14.824219 6.65625 15.125 6.65625 15.429688 6.65625 C 15.683594 6.65625 15.933594 6.65625 16.191406 6.65625 L 16.546875 6.65625 C 16.199219 9.953125 16.261719 13.246094 16.738281 16.53125 C 17.214844 19.816406 18.089844 22.992188 19.363281 26.054688 Z M 31.800781 37.546875 L 35.148438 37.546875 C 35.117188 37.65625 35.089844 37.769531 35.0625 37.882812 C 34.886719 38.566406 34.703125 39.273438 34.582031 40 C 34.457031 40.722656 34.394531 41.425781 34.328125 42.179688 C 34.308594 42.382812 34.289062 42.589844 34.269531 42.796875 L 32.703125 42.796875 Z M 28.179688 46.914062 C 29.828125 45.90625 31.613281 45.441406 33.542969 45.511719 C 35.40625 45.453125 37.128906 45.921875 38.710938 46.914062 Z M 50.34375 6.710938 C 50.519531 6.710938 50.695312 6.703125 50.867188 6.699219 C 51.558594 6.660156 52.25 6.675781 52.941406 6.738281 C 53.179688 6.777344 53.402344 6.855469 53.613281 6.96875 C 53.824219 7.082031 54.011719 7.226562 54.171875 7.402344 C 54.335938 7.578125 54.464844 7.773438 54.5625 7.992188 C 54.660156 8.210938 54.714844 8.441406 54.734375 8.679688 C 54.742188 9.371094 54.753906 10.066406 54.769531 10.757812 C 54.878906 12.957031 54.808594 15.148438 54.558594 17.335938 C 53.976562 21.445312 51.609375 24.367188 47.53125 26.03125 C 48.800781 22.980469 49.675781 19.820312 50.152344 16.546875 C 50.628906 13.277344 50.691406 10 50.34375 6.710938 Z M 42.191406 15.542969 C 41.945312 15.105469 41.574219 14.851562 41.082031 14.777344 C 39.871094 14.53125 38.652344 14.355469 37.421875 14.246094 C 37.113281 14.230469 36.835938 14.128906 36.589844 13.941406 C 36.34375 13.75 36.175781 13.507812 36.082031 13.210938 L 36.050781 13.136719 C 35.585938 12.121094 35.101562 11.058594 34.550781 10.0625 C 34.320312 9.621094 33.957031 9.355469 33.464844 9.265625 C 32.976562 9.355469 32.613281 9.621094 32.375 10.0625 C 32.070312 10.621094 31.789062 11.195312 31.511719 11.761719 C 31.222656 12.363281 30.917969 12.984375 30.585938 13.566406 C 30.382812 13.878906 30.101562 14.082031 29.738281 14.167969 C 29.085938 14.296875 28.402344 14.390625 27.75 14.480469 C 27.121094 14.566406 26.480469 14.660156 25.84375 14.777344 C 25.351562 14.863281 24.984375 15.125 24.75 15.566406 C 24.695312 16.0625 24.839844 16.488281 25.191406 16.84375 C 26.089844 17.800781 26.996094 18.691406 27.902344 19.488281 C 28.101562 19.640625 28.238281 19.832031 28.3125 20.070312 C 28.390625 20.308594 28.390625 20.546875 28.316406 20.785156 C 28.027344 22.230469 27.84375 23.359375 27.714844 24.425781 C 27.664062 24.824219 27.722656 25.550781 28.089844 25.789062 C 28.578125 25.996094 29.058594 25.972656 29.527344 25.722656 C 30.554688 25.246094 31.621094 24.6875 32.875 23.960938 C 33.054688 23.839844 33.253906 23.78125 33.472656 23.785156 C 33.6875 23.785156 33.886719 23.847656 34.066406 23.96875 C 35.007812 24.492188 35.964844 24.992188 36.898438 25.476562 L 37.328125 25.695312 C 37.511719 25.792969 37.703125 25.875 37.894531 25.941406 C 37.964844 25.96875 38.023438 25.992188 38.082031 26.011719 L 38.125 26.035156 L 38.175781 26.027344 C 38.550781 26.03125 38.859375 25.894531 39.109375 25.613281 C 39.324219 25.292969 39.386719 24.945312 39.285156 24.570312 C 39.21875 24.136719 39.140625 23.714844 39.066406 23.28125 C 38.902344 22.402344 38.742188 21.496094 38.640625 20.597656 C 38.617188 20.222656 38.726562 19.890625 38.972656 19.605469 C 39.429688 19.117188 39.929688 18.632812 40.402344 18.167969 C 40.859375 17.734375 41.328125 17.285156 41.757812 16.820312 C 42.113281 16.464844 42.253906 16.039062 42.191406 15.542969 Z M 38.546875 17.03125 C 38.101562 17.484375 37.632812 17.914062 37.140625 18.320312 C 36.773438 18.585938 36.523438 18.9375 36.386719 19.371094 C 36.25 19.804688 36.253906 20.234375 36.40625 20.664062 C 36.542969 21.222656 36.632812 21.792969 36.734375 22.445312 C 36.769531 22.621094 36.796875 22.808594 36.828125 23.003906 C 36.632812 22.902344 36.441406 22.800781 36.246094 22.707031 C 35.59375 22.367188 34.964844 22.046875 34.371094 21.714844 C 34.09375 21.539062 33.789062 21.449219 33.457031 21.445312 C 33.136719 21.449219 32.839844 21.539062 32.570312 21.707031 C 31.96875 22.054688 31.339844 22.375 30.679688 22.714844 C 30.492188 22.800781 30.316406 22.894531 30.128906 22.996094 C 30.15625 22.792969 30.1875 22.589844 30.222656 22.394531 C 30.359375 21.597656 30.492188 20.835938 30.5625 20.082031 C 30.609375 19.613281 30.484375 19.195312 30.1875 18.828125 C 29.65625 18.25 29.085938 17.734375 28.433594 17.132812 C 28.265625 16.972656 28.097656 16.820312 27.917969 16.652344 C 28.171875 16.609375 28.410156 16.566406 28.648438 16.53125 C 29.441406 16.398438 30.121094 16.285156 30.816406 16.210938 C 31.140625 16.1875 31.433594 16.078125 31.695312 15.882812 C 31.957031 15.6875 32.148438 15.4375 32.265625 15.132812 C 32.558594 14.5 32.875 13.863281 33.210938 13.1875 L 33.464844 12.667969 C 33.558594 12.855469 33.652344 13.035156 33.746094 13.210938 C 34.085938 13.871094 34.40625 14.492188 34.6875 15.125 C 34.796875 15.433594 34.980469 15.683594 35.242188 15.878906 C 35.5 16.078125 35.792969 16.1875 36.117188 16.210938 C 36.804688 16.292969 37.472656 16.398438 38.253906 16.523438 C 38.480469 16.558594 38.71875 16.601562 38.964844 16.632812 C 38.820312 16.769531 38.683594 16.90625 38.546875 17.035156 Z M 38.546875 17.03125 " fill-opacity="1" fill-rule="nonzero"/></g></svg>